<?xml version="1.0" encoding="utf-8"?>
<!-- Generator: Adobe Illustrator 15.1.1, SVG Export Plug-In . SVG Version: 6.00 Build 0)  -->
<!DOCTYPE svg PUBLIC "-//W3C//DTD SVG 1.1//EN" "http://www.w3.org/Graphics/SVG/1.1/DTD/svg11.dtd">
<svg version="1.1" id="レイヤー_1" xmlns="http://www.w3.org/2000/svg" xmlns:xlink="http://www.w3.org/1999/xlink" x="0px"
	 y="0px" width="595.28px" height="174.861px" viewBox="0 0 595.28 174.861" enable-background="new 0 0 595.28 174.861"
	 xml:space="preserve">
<linearGradient id="SVGID_1_" gradientUnits="userSpaceOnUse" x1="-141.3677" y1="-329.1602" x2="-75.3247" y2="-329.1602" gradientTransform="matrix(0.6426 -0.656 0.668 0.6544 98.7617 114.186)">
	<stop  offset="0" style="stop-color:#690000"/>
	<stop  offset="0.1008" style="stop-color:#8F0900"/>
	<stop  offset="0.2326" style="stop-color:#B92E17"/>
	<stop  offset="0.3463" style="stop-color:#D54426"/>
	<stop  offset="0.4357" style="stop-color:#E5512F"/>
	<stop  offset="0.49" style="stop-color:#EA5532"/>
	<stop  offset="0.5531" style="stop-color:#E5502E"/>
	<stop  offset="0.6561" style="stop-color:#D54225"/>
	<stop  offset="0.7861" style="stop-color:#BA2B15"/>
	<stop  offset="0.9368" style="stop-color:#910100"/>
	<stop  offset="1" style="stop-color:#7D0000"/>
</linearGradient>
<polygon fill="url(#SVGID_1_)" points="-147.463,-30.195 -189.903,13.128 -234.019,-30.088 -191.579,-73.411 "/>
<linearGradient id="SVGID_2_" gradientUnits="userSpaceOnUse" x1="-214.6187" y1="-329.0811" x2="-148.5757" y2="-329.0811" gradientTransform="matrix(0.6426 -0.656 0.668 0.6544 98.7617 114.186)">
	<stop  offset="0" style="stop-color:#690000"/>
	<stop  offset="0.1008" style="stop-color:#8F0900"/>
	<stop  offset="0.2326" style="stop-color:#B92E17"/>
	<stop  offset="0.3463" style="stop-color:#D54426"/>
	<stop  offset="0.4357" style="stop-color:#E5512F"/>
	<stop  offset="0.49" style="stop-color:#EA5532"/>
	<stop  offset="0.5531" style="stop-color:#E5502E"/>
	<stop  offset="0.6561" style="stop-color:#D54225"/>
	<stop  offset="0.7861" style="stop-color:#BA2B15"/>
	<stop  offset="0.9368" style="stop-color:#910100"/>
	<stop  offset="1" style="stop-color:#7D0000"/>
</linearGradient>
<polygon fill="url(#SVGID_2_)" points="-194.481,17.909 -236.921,61.232 -281.037,18.016 -238.597,-25.307 "/>
<linearGradient id="SVGID_3_" gradientUnits="userSpaceOnUse" x1="-142.2085" y1="-255.8311" x2="-76.165" y2="-255.8311" gradientTransform="matrix(0.6426 -0.656 0.668 0.6544 98.7617 114.186)">
	<stop  offset="0" style="stop-color:#690000"/>
	<stop  offset="0.1008" style="stop-color:#8F0900"/>
	<stop  offset="0.2326" style="stop-color:#B92E17"/>
	<stop  offset="0.3463" style="stop-color:#D54426"/>
	<stop  offset="0.4357" style="stop-color:#E5512F"/>
	<stop  offset="0.49" style="stop-color:#EA5532"/>
	<stop  offset="0.5531" style="stop-color:#E5502E"/>
	<stop  offset="0.6561" style="stop-color:#D54225"/>
	<stop  offset="0.7861" style="stop-color:#BA2B15"/>
	<stop  offset="0.9368" style="stop-color:#910100"/>
	<stop  offset="1" style="stop-color:#7D0000"/>
</linearGradient>
<polygon fill="url(#SVGID_3_)" points="-99.02,18.343 -141.46,61.667 -185.575,18.45 -143.136,-24.873 "/>
<linearGradient id="SVGID_4_" gradientUnits="userSpaceOnUse" x1="-215.0874" y1="-255.0977" x2="-149.0439" y2="-255.0977" gradientTransform="matrix(0.6426 -0.656 0.668 0.6544 98.7617 114.186)">
	<stop  offset="0" style="stop-color:#690000"/>
	<stop  offset="0.1008" style="stop-color:#8F0900"/>
	<stop  offset="0.2326" style="stop-color:#B92E17"/>
	<stop  offset="0.3463" style="stop-color:#D54426"/>
	<stop  offset="0.4357" style="stop-color:#E5512F"/>
	<stop  offset="0.49" style="stop-color:#EA5532"/>
	<stop  offset="0.5531" style="stop-color:#E5502E"/>
	<stop  offset="0.6561" style="stop-color:#D54225"/>
	<stop  offset="0.7861" style="stop-color:#BA2B15"/>
	<stop  offset="0.9368" style="stop-color:#910100"/>
	<stop  offset="1" style="stop-color:#7D0000"/>
</linearGradient>
<polygon fill="url(#SVGID_4_)" points="-145.361,66.632 -187.801,109.955 -231.916,66.739 -189.476,23.416 "/>
<g>
	<g>
		<g>
			<path d="M-482.414,164.228v-31.438h-7.878v-7.805h7.878V93.547h31.438c4.294,0,4.52,2.69,7.6,5.782
				c3.079,3.093,3.316,3.647,8.083,9.9v39.316c0,4.246-1.541,7.92-4.62,11.025c-3.08,3.105-6.769,4.656-11.062,4.656H-482.414z
				 M-466.731,156.351h7.878c2.185,0,4.043-0.773,5.577-2.32c1.533-1.545,2.301-3.373,2.301-5.484V109.23
				c0-2.136-0.779-3.97-2.338-5.504c-1.559-1.533-3.404-2.301-5.54-2.301h-7.878v23.561h7.878v7.805h-7.878V156.351z"/>
		</g>
	</g>
</g>
<g>
	<g>
		<path d="M-781.67-137.378h-32.606v-14.607h6.691v-36.847h-6.691v-14.607h33.078c19.225,0,25.727,17.623,25.727,33.926
			C-755.472-152.833-762.823-137.378-781.67-137.378z M-782.99-188.832h-8.104v36.847h7.351c8.764,0,10.272-11.496,10.272-18.376
			C-773.472-176.77-774.697-188.832-782.99-188.832z"/>
		<path d="M-701.661-137.378v-14.607h6.031v-34.773c-1.413,8.199-4.052,16.209-6.22,24.125c-1.414,5.371-2.827,10.743-4.053,16.115
			c-0.659,2.355-0.754,4.711-1.413,6.973l-0.565,2.168h-11.402c-0.283-0.848-0.283-1.696-0.566-2.545
			c-2.355-14.512-7.35-28.177-9.988-42.312c-0.283-1.508-0.566-3.11-0.943-4.618c-0.094,0.848-0.094,1.602-0.094,2.45v32.417h5.466
			v14.607h-26.01v-14.607h6.408v-36.847h-6.408v-14.607c7.445,0,14.607-0.094,22.146-0.094h9.99
			c2.732,9.141,5.088,18.376,7.633,27.8c1.885-6.314,3.77-12.345,5.561-18.471c1.036-3.11,1.695-6.314,2.732-9.33h1.508
			c9.707,0,19.131,0.094,28.837,0.094v14.607h-6.126v36.847h6.126v14.607H-701.661z"/>
	</g>
</g>
<g>
	<g>
		<path d="M-278.964-631.436h-23.937c-2.073,0-4.429-0.188-4.429-2.922c0-1.318,0.848-2.167,2.073-2.544
			c3.298-1.036,3.204-1.603,3.204-5.089v-49.381c0-1.414,0.188-3.958-1.602-4.523c-1.885-0.66-3.675-0.942-3.675-3.298
			c0-2.45,2.356-2.733,4.241-2.733h24.125V-631.436z M-274.724-701.926c16.021-0.188,29.402,10.932,30.533,35.245
			c1.037,22.146-14.89,35.245-30.533,35.245v-5.466c5.749-0.754,6.031-6.126,6.031-9.706v-40.146c0-3.581-0.283-8.953-6.031-9.707
			V-701.926z"/>
		<path d="M-233.446-701.926h23.936l10.084,28.931h0.188l4.241-15.644h0.188v17.151l-11.968,40.051h-2.733l-19.695-58.333
			c-0.471-1.414-0.942-2.827-1.696-4.052c-0.848-1.414-1.225-2.544-2.827-2.639c-1.131-0.094-3.675-0.283-3.675-2.544
			C-237.404-701.926-234.577-701.926-233.446-701.926z M-229.488-678.083h0.188l5.277,15.549v16.209
			c1.508,11.78,7.54,8.104,7.54,12.157c0,2.921-3.864,2.732-4.9,2.732h-10.744c-1.037,0-4.9,0.188-4.9-2.732
			c0-4.053,6.031-0.377,7.539-12.157V-678.083z M-190.567-701.926h24.879c0.377,0,3.487,0.188,3.487,2.921
			c0,1.319-0.849,2.167-2.074,2.544c-3.298,1.037-3.203,1.602-3.203,5.089v49.381c0,3.486-0.095,4.053,3.203,5.089
			c1.226,0.377,2.074,1.226,2.074,2.544c0,2.733-3.11,2.922-3.487,2.922h-26.669c-0.377,0-3.487-0.188-3.487-2.922
			c0-1.318,0.849-2.167,2.073-2.544c3.299-1.036,3.204-1.603,3.204-5.089V-701.926z"/>
	</g>
</g>
<g>
	<g>
		<path d="M-521.843-480.273c4.995-0.848,10.932-1.414,17.434-1.414c11.78,0,20.167,2.827,25.727,7.916
			c5.749,5.183,9.047,12.534,9.047,22.806c0,10.365-3.298,18.848-9.141,24.689c-6.031,5.938-15.832,9.142-28.177,9.142
			c-5.937,0-10.743-0.282-14.89-0.754V-480.273z M-513.644-424.107c2.073,0.283,5.089,0.377,8.293,0.377
			c17.623,0,27.046-9.801,27.046-26.952c0.094-14.984-8.387-24.502-25.727-24.502c-4.241,0-7.445,0.377-9.612,0.848V-424.107z"/>
		<path d="M-405.552-445.594c-0.472-8.858-1.036-19.602-1.036-27.423h-0.189c-2.262,7.351-4.806,15.361-8.01,24.125l-11.215,30.816
			h-6.219l-10.367-30.25c-3.015-9.047-5.465-17.152-7.256-24.691h-0.188c-0.188,7.916-0.66,18.471-1.225,28.083l-1.696,27.234
			h-7.822l4.429-63.517h10.46l10.837,30.722c2.639,7.822,4.713,14.795,6.408,21.393h0.189c1.695-6.408,3.957-13.383,6.785-21.393
			l11.309-30.722h10.46l3.958,63.517h-8.104L-405.552-445.594z"/>
	</g>
</g>
<g>
	<g>
		<path d="M-942.967-46.473l22.43-0.094c8.544,0.315,15.487,3.298,20.828,8.953c5.089,6.283,7.633,13.886,7.633,22.806
			c0,8.733-2.513,16.21-7.539,22.43c-5.341,5.97-12.378,8.985-21.11,9.047h-22.43c0.627-5.591,1.037-14.669,1.226-27.235
			l-0.188-20.356C-942.119-37.457-942.401-42.64-942.967-46.473z M-926.003,9.507h4.052c12.063-0.815,18.345-9.109,18.849-24.88
			c-0.315-15.706-6.409-23.749-18.283-24.125h-4.335c-0.315,3.896-0.504,7.445-0.565,10.649c-0.188,6.284-0.283,12.661-0.283,19.131
			C-926.569-0.419-926.38,5.989-926.003,9.507z"/>
		<path d="M-859.658-46.19c4.712,14.513,8.89,28.494,12.534,41.938c3.204-11.687,6.816-25.696,10.838-42.032l16.398,0.094
			c-0.629,3.833-0.976,9.299-1.037,16.398v19.414v7.162c0.25,7.728,0.754,14.357,1.508,19.885h-11.309
			c0.377-2.764,0.659-5.843,0.848-9.235c0.251-5.277,0.377-10.869,0.377-16.775c0-4.585-0.252-9.989-0.754-16.209
			c-3.708,12.126-7.666,26.199-11.874,42.22h-10.367c-3.268-12.878-7.666-27.047-13.193-42.502
			c-0.629,5.843-0.942,11.026-0.942,15.549v7.068c0.188,8.043,0.66,14.671,1.414,19.885h-18.377
			c1.256-4.335,1.885-13.005,1.885-26.011c0-6.156-0.063-12.282-0.189-18.377c0-4.962-0.409-11.151-1.225-18.565L-859.658-46.19z"/>
	</g>
</g>
<g>
	<g>
		<path d="M-925.786,196.236c0,9.739-2.733,18.033-8.199,24.88c-5.97,7.478-13.886,11.215-23.749,11.215h-25.163
			c-4.398,0-7.76-1.1-10.083-3.298c-2.325-2.199-3.487-5.151-3.487-8.859v-48.723c0-3.518,1.256-6.376,3.77-8.576
			c2.45-2.135,5.685-3.204,9.707-3.204h25.257c10.178,0,18.22,3.802,24.126,11.403C-928.394,177.922-925.786,186.31-925.786,196.236
			z M-944.446,195.859c0-5.466-1.319-10.083-3.958-13.854c-2.954-4.208-7.006-6.314-12.157-6.314h-12.534
			c-3.142,0-4.712,1.414-4.712,4.241v32.23c0,2.766,1.476,4.147,4.429,4.147h12.911c5.026,0,9.047-2.168,12.063-6.503
			C-945.766,205.975-944.446,201.325-944.446,195.859z"/>
		<path d="M-840.593,225.545c0,2.577-0.911,4.585-2.732,6.031c-1.823,1.444-3.991,2.168-6.503,2.168
			c-2.514,0-4.65-0.724-6.408-2.168c-1.948-1.571-2.922-3.643-2.922-6.22v-26.388l-12.063,23.089
			c-1.822,3.52-4.681,5.277-8.575,5.277c-3.833,0-6.691-1.758-8.576-5.277l-12.157-22.43v26.294c0,2.577-1.069,4.555-3.204,5.938
			c-1.823,1.256-4.085,1.885-6.786,1.885c-2.388,0-4.429-0.724-6.125-2.168c-1.696-1.383-2.544-3.266-2.544-5.654v-58.43
			c0-3.078,0.942-5.466,2.828-7.162c1.633-1.57,3.737-2.356,6.314-2.356c2.323,0,4.523,0.503,6.597,1.508
			c2.01,0.942,3.424,2.294,4.241,4.052c4.585,9.864,10.963,23.341,19.131,40.43l19.885-40.242c1.886-3.832,5.245-5.749,10.084-5.749
			c2.639,0,4.838,0.754,6.598,2.262c1.946,1.696,2.921,3.99,2.921,6.879V225.545z"/>
	</g>
</g>
<polyline points="-449.585,119.553 -443.862,119.553 -443.862,121.009 -423.802,148.583 -403.58,121.009 -403.58,164.228 
	-392.025,164.228 -392.025,93.547 -397.802,93.547 -422.397,127.047 -447.021,93.547 -449.64,93.547 "/>
<g>
	<g>
		<path d="M-476.547,175.214c-0.037-0.365-0.102-0.765-0.193-1.221l-0.701-3.355c-0.092-0.445-0.166-0.971-0.258-1.724
			c-0.056,0.468-0.166,1.187-0.277,1.724l-0.682,3.366c-0.12,0.571-0.175,0.902-0.203,1.21h-1.834
			c-0.046-0.331-0.092-0.57-0.23-1.232l-1.475-6.848c-0.129-0.583-0.258-1.107-0.35-1.416h2.102
			c0.009,0.411,0.055,0.776,0.129,1.256l0.59,3.47c0.027,0.171,0.092,0.708,0.203,1.609c0.138-0.959,0.203-1.37,0.258-1.609
			l0.737-3.538c0.11-0.514,0.166-0.867,0.203-1.188h1.641c0.037,0.297,0.092,0.616,0.212,1.153l0.747,3.516
			c0.074,0.365,0.138,0.741,0.258,1.666c0.019-0.217,0.019-0.217,0.074-0.696c0.028-0.251,0.092-0.799,0.129-0.981l0.581-3.401
			c0.092-0.525,0.129-0.856,0.139-1.256h2.092c-0.092,0.309-0.221,0.845-0.341,1.416l-1.475,6.836
			c-0.12,0.537-0.203,0.971-0.23,1.244H-476.547z"/>
		<path d="M-466.231,175.294c-0.396-0.057-0.728-0.08-1.521-0.08h-2.903c-0.701,0-0.958,0.012-1.355,0.034
			c0.056-0.456,0.074-0.879,0.074-1.666v-6.231c0-0.708-0.018-1.107-0.074-1.667c0.378,0.023,0.636,0.034,1.355,0.034h2.94
			c0.627,0,0.94-0.022,1.373-0.079v2.134c-0.424-0.057-0.755-0.08-1.373-0.08h-2.396v1.678h1.991c0.608,0,0.829-0.011,1.382-0.079
			v2.111c-0.433-0.058-0.747-0.08-1.382-0.08h-1.991v1.917h2.378c0.701,0,1.106-0.022,1.502-0.079V175.294z"/>
		<path d="M-463.925,175.214c-0.701,0-0.968,0.012-1.364,0.034c0.056-0.49,0.074-0.879,0.074-1.678v-6.243
			c0-0.604-0.018-1.096-0.074-1.644c0.47,0.034,0.599,0.034,1.355,0.034h2.415c1.493,0,2.369,0.891,2.369,2.397
			c0,0.696-0.184,1.244-0.535,1.632c-0.203,0.217-0.369,0.331-0.747,0.502c0.452,0.126,0.691,0.263,0.958,0.548
			c0.396,0.434,0.599,1.051,0.599,1.804c0,1.644-0.94,2.613-2.543,2.613H-463.925z M-461.787,169.382
			c0.488,0,0.792-0.354,0.792-0.913s-0.286-0.879-0.811-0.879h-1.604v1.792H-461.787z M-463.409,173.331h1.696
			c0.581,0,0.931-0.399,0.931-1.073c0-0.662-0.35-1.05-0.94-1.05h-1.687V173.331z"/>
		<path d="M-454.789,167.361c0-0.775-0.019-1.152-0.083-1.678c0.369,0.023,0.599,0.034,1.364,0.034h1.926
			c1.133,0,2.046,0.389,2.663,1.13c0.673,0.822,1.014,2.021,1.014,3.539c0,1.563-0.368,2.818-1.069,3.687
			c-0.617,0.753-1.493,1.141-2.59,1.141h-1.944c-0.71,0-0.968,0.012-1.355,0.034c0.055-0.502,0.074-0.879,0.074-1.666V167.361z
			 M-451.729,173.217c0.599,0,1.023-0.194,1.354-0.604c0.378-0.479,0.581-1.244,0.581-2.191c0-0.971-0.175-1.679-0.534-2.123
			c-0.323-0.399-0.765-0.582-1.429-0.582h-1.208v5.501H-451.729z"/>
		<path d="M-441.202,175.294c-0.396-0.057-0.728-0.08-1.521-0.08h-2.903c-0.7,0-0.958,0.012-1.354,0.034
			c0.056-0.456,0.074-0.879,0.074-1.666v-6.231c0-0.708-0.019-1.107-0.074-1.667c0.378,0.023,0.636,0.034,1.354,0.034h2.94
			c0.627,0,0.94-0.022,1.373-0.079v2.134c-0.424-0.057-0.756-0.08-1.373-0.08h-2.396v1.678h1.991c0.608,0,0.829-0.011,1.382-0.079
			v2.111c-0.433-0.058-0.746-0.08-1.382-0.08h-1.991v1.917h2.378c0.7,0,1.106-0.022,1.502-0.079V175.294z"/>
		<path d="M-437.053,172.44c0.074,0.309,0.074,0.309,0.176,0.788c0.11-0.503,0.129-0.571,0.175-0.788l1.336-5.489
			c0.12-0.525,0.185-0.845,0.213-1.233h2.165c-0.129,0.343-0.212,0.605-0.442,1.393l-1.953,6.871
			c-0.157,0.56-0.249,0.947-0.295,1.232h-2.396c-0.046-0.297-0.139-0.685-0.295-1.232l-1.963-6.871
			c-0.185-0.662-0.277-0.947-0.434-1.393h2.156c0.037,0.365,0.12,0.811,0.222,1.233L-437.053,172.44z"/>
		<path d="M-426.571,175.294c-0.396-0.057-0.728-0.08-1.521-0.08h-2.903c-0.7,0-0.958,0.012-1.354,0.034
			c0.056-0.456,0.074-0.879,0.074-1.666v-6.231c0-0.708-0.019-1.107-0.074-1.667c0.378,0.023,0.636,0.034,1.354,0.034h2.94
			c0.627,0,0.94-0.022,1.373-0.079v2.134c-0.424-0.057-0.756-0.08-1.373-0.08h-2.396v1.678h1.991c0.608,0,0.829-0.011,1.382-0.079
			v2.111c-0.433-0.058-0.746-0.08-1.382-0.08h-1.991v1.917h2.378c0.7,0,1.106-0.022,1.502-0.079V175.294z"/>
		<path d="M-424.265,175.214c-0.636,0-1.014,0.012-1.364,0.034c0.056-0.399,0.074-0.901,0.074-1.666v-6.026
			c0-0.799-0.019-1.29-0.074-1.838h2.009c-0.064,0.594-0.073,0.913-0.073,1.804v5.661h2.23c0.783,0,1.097-0.012,1.53-0.08v2.191
			c-0.342-0.057-0.793-0.08-1.53-0.08H-424.265z"/>
		<path d="M-412.098,170.421c0,3.013-1.483,5.01-3.724,5.01c-2.258,0-3.714-1.951-3.714-4.976c0-3.014,1.456-4.942,3.724-4.942
			S-412.098,167.43-412.098,170.421z M-414.015,170.443c0-1.849-0.682-2.968-1.797-2.968c-1.124,0-1.815,1.13-1.815,2.968
			c0,1.86,0.691,3.013,1.815,3.013C-414.696,173.456-414.015,172.315-414.015,170.443z"/>
		<path d="M-411.173,175.214c0.056-0.502,0.074-1.016,0.074-1.688v-6.175c0-0.616-0.019-1.13-0.074-1.667
			c0.434,0.023,0.765,0.034,1.354,0.034h2.019c1.825,0,2.83,1.085,2.83,3.07c0,2.032-1.051,3.241-2.839,3.241h-1.456v1.461
			c0,0.674,0.027,1.233,0.073,1.724H-411.173z M-407.892,170.09c0.645,0,1.022-0.445,1.022-1.233c0-0.787-0.359-1.198-1.022-1.198
			h-1.373v2.432H-407.892z"/>
		<path d="M-398.36,175.294c-0.396-0.057-0.728-0.08-1.521-0.08h-2.903c-0.7,0-0.958,0.012-1.354,0.034
			c0.056-0.456,0.074-0.879,0.074-1.666v-6.231c0-0.708-0.019-1.107-0.074-1.667c0.378,0.023,0.636,0.034,1.354,0.034h2.94
			c0.627,0,0.94-0.022,1.373-0.079v2.134c-0.424-0.057-0.756-0.08-1.373-0.08h-2.396v1.678h1.991c0.608,0,0.829-0.011,1.382-0.079
			v2.111c-0.433-0.058-0.746-0.08-1.382-0.08h-1.991v1.917h2.378c0.7,0,1.106-0.022,1.502-0.079V175.294z"/>
		<path d="M-392.764,175.214c-0.056-0.365-0.166-0.833-0.451-1.78c-0.295-0.993-0.406-1.256-0.637-1.507
			c-0.193-0.217-0.424-0.308-0.719-0.308h-0.939v1.871c0,0.776,0.019,1.199,0.073,1.724h-1.981c0.056-0.524,0.074-0.867,0.074-1.712
			v-6.141c0-0.707-0.019-1.13-0.074-1.678c0.405,0.023,0.747,0.034,1.373,0.034h2.396c1.493,0,2.359,0.959,2.359,2.603
			c0,0.811-0.185,1.449-0.544,1.872c-0.23,0.263-0.424,0.388-0.875,0.57c0.47,0.183,0.682,0.445,0.977,1.256
			c0.139,0.365,0.268,0.753,0.682,1.985c0.102,0.32,0.213,0.605,0.442,1.21H-392.764z M-394.072,169.667
			c0.544,0,0.876-0.411,0.876-1.062c0-0.639-0.295-0.97-0.867-0.97h-1.446v2.031H-394.072z"/>
	</g>
</g>
<g>
	<g>
		<g>
			<path d="M174.908-219.668v-116.768h51.938c7.094,0,9.527,4.691,14.031,10.322c4.167,5.211,5.562,5.68,11.877,15.586v64.953
				c0,7.015-2.546,13.084-7.633,18.214c-5.088,5.13-11.182,7.692-18.276,7.692H174.908z M200.816-232.681h13.015
				c3.608,0,6.679-1.278,9.214-3.833c2.534-2.552,3.801-5.573,3.801-9.061v-64.953c0-3.528-1.288-6.559-3.861-9.093
				c-2.576-2.533-5.626-3.801-9.154-3.801h-13.015V-232.681z"/>
		</g>
	</g>
</g>
<polyline points="238.56,-291.067 273.957,-245.514 309.637,-291.067 309.637,-219.668 330.029,-219.668 330.029,-336.436 
	319.836,-336.436 276.435,-281.092 232.988,-336.436 228.367,-336.436 228.367,-291.726 238.557,-291.726 "/>
<g>
	<g>
		<path d="M362.693-286.971c-0.173-1.75-0.475-3.665-0.906-5.853l-3.278-16.083c-0.431-2.133-0.776-4.649-1.208-8.26
			c-0.258,2.243-0.775,5.689-1.294,8.26l-3.192,16.138c-0.561,2.735-0.818,4.321-0.949,5.798h-8.584
			c-0.215-1.586-0.431-2.735-1.078-5.908l-6.902-32.822c-0.604-2.79-1.207-5.306-1.639-6.783h9.836
			c0.043,1.969,0.258,3.72,0.604,6.017l2.761,16.63c0.13,0.82,0.431,3.392,0.948,7.713c0.647-4.595,0.949-6.564,1.209-7.713
			l3.45-16.958c0.518-2.461,0.776-4.157,0.949-5.689h7.679c0.172,1.422,0.431,2.954,0.992,5.525l3.494,16.849
			c0.345,1.75,0.646,3.556,1.207,7.986c0.086-1.039,0.086-1.039,0.346-3.337c0.129-1.203,0.432-3.829,0.604-4.704l2.718-16.302
			c0.431-2.516,0.604-4.103,0.647-6.017h9.791c-0.432,1.477-1.035,4.048-1.596,6.783l-6.902,32.767
			c-0.561,2.571-0.948,4.649-1.078,5.962H362.693z"/>
		<path d="M410.969-286.588c-1.854-0.273-3.407-0.383-7.117-0.383h-13.588c-3.278,0-4.486,0.055-6.342,0.164
			c0.26-2.188,0.346-4.212,0.346-7.987v-29.868c0-3.391-0.086-5.306-0.346-7.986c1.77,0.109,2.977,0.164,6.342,0.164h13.76
			c2.934,0,4.4-0.109,6.428-0.383v10.229c-1.984-0.274-3.537-0.383-6.428-0.383h-11.215v8.042h9.317
			c2.847,0,3.882-0.055,6.471-0.383v10.12c-2.027-0.274-3.494-0.383-6.471-0.383h-9.317v9.19h11.129
			c3.279,0,5.177-0.109,7.031-0.383V-286.588z"/>
		<path d="M421.758-286.971c-3.279,0-4.529,0.055-6.385,0.164c0.259-2.352,0.346-4.212,0.346-8.042v-29.922
			c0-2.899-0.087-5.251-0.346-7.877c2.199,0.164,2.805,0.164,6.342,0.164h11.301c6.988,0,11.086,4.267,11.086,11.488
			c0,3.336-0.861,5.962-2.502,7.822c-0.949,1.04-1.725,1.586-3.494,2.407c2.115,0.602,3.236,1.258,4.486,2.626
			c1.855,2.079,2.805,5.033,2.805,8.643c0,7.877-4.4,12.527-11.906,12.527H421.758z M431.766-314.924
			c2.285,0,3.709-1.696,3.709-4.376c0-2.68-1.338-4.212-3.795-4.212h-7.506v8.588H431.766z M424.174-295.997h7.936
			c2.719,0,4.357-1.915,4.357-5.142c0-3.173-1.639-5.033-4.4-5.033h-7.893V-295.997z"/>
		<path d="M336.423-258.971c0-3.72-0.086-5.525-0.388-8.041c1.725,0.109,2.804,0.164,6.384,0.164h9.016
			c5.306,0,9.576,1.86,12.466,5.416c3.149,3.938,4.746,9.683,4.746,16.958c0,7.494-1.727,13.511-5.004,17.669
			c-2.891,3.61-6.988,5.47-12.121,5.47h-9.103c-3.321,0-4.529,0.055-6.341,0.164c0.259-2.407,0.345-4.212,0.345-7.987V-258.971z
			 M350.744-230.908c2.805,0,4.789-0.93,6.342-2.899c1.768-2.297,2.717-5.963,2.717-10.503c0-4.65-0.819-8.042-2.502-10.175
			c-1.51-1.915-3.58-2.79-6.686-2.79h-5.651v26.367H350.744z"/>
		<path d="M400.012-220.952c-1.855-0.273-3.408-0.383-7.118-0.383h-13.588c-3.278,0-4.486,0.055-6.341,0.164
			c0.258-2.188,0.345-4.212,0.345-7.987v-29.868c0-3.391-0.087-5.306-0.345-7.986c1.768,0.109,2.977,0.164,6.341,0.164h13.761
			c2.934,0,4.4-0.109,6.428-0.383v10.229c-1.984-0.274-3.537-0.383-6.428-0.383h-11.216v8.042h9.317
			c2.848,0,3.883-0.055,6.471-0.383v10.12c-2.027-0.274-3.494-0.383-6.471-0.383h-9.317v9.19h11.13c3.277,0,5.176-0.109,7.031-0.383
			V-220.952z"/>
		<path d="M419.426-234.628c0.346,1.477,0.346,1.477,0.82,3.775c0.518-2.407,0.604-2.735,0.82-3.775l6.254-26.312
			c0.561-2.516,0.863-4.048,0.992-5.908h10.137c-0.604,1.641-0.992,2.899-2.07,6.674l-9.145,32.931
			c-0.732,2.68-1.164,4.54-1.381,5.908h-11.215c-0.216-1.422-0.646-3.282-1.381-5.908l-9.188-32.931
			c-0.863-3.173-1.295-4.541-2.027-6.674h10.094c0.172,1.75,0.561,3.884,1.035,5.908L419.426-234.628z"/>
		<path d="M468.477-220.952c-1.854-0.273-3.406-0.383-7.117-0.383h-13.588c-3.277,0-4.486,0.055-6.34,0.164
			c0.258-2.188,0.344-4.212,0.344-7.987v-29.868c0-3.391-0.086-5.306-0.344-7.986c1.768,0.109,2.977,0.164,6.34,0.164h13.762
			c2.932,0,4.398-0.109,6.426-0.383v10.229c-1.984-0.274-3.537-0.383-6.426-0.383h-11.217v8.042h9.318
			c2.848,0,3.883-0.055,6.471-0.383v10.12c-2.027-0.274-3.494-0.383-6.471-0.383h-9.318v9.19h11.129
			c3.279,0,5.178-0.109,7.031-0.383V-220.952z"/>
		<path d="M479.266-221.335c-2.977,0-4.744,0.055-6.383,0.164c0.258-1.915,0.344-4.321,0.344-7.987v-28.883
			c0-3.829-0.086-6.182-0.344-8.807h9.402c-0.301,2.845-0.344,4.376-0.344,8.643v27.132h10.438c3.668,0,5.135-0.055,7.162-0.383
			v10.503c-1.596-0.273-3.711-0.383-7.162-0.383H479.266z"/>
		<path d="M536.211-244.31c0,14.441-6.945,24.015-17.428,24.015c-10.568,0-17.385-9.354-17.385-23.851
			c0-14.441,6.816-23.687,17.428-23.687S536.211-258.642,536.211-244.31z M527.238-244.201c0-8.862-3.191-14.223-8.412-14.223
			c-5.262,0-8.498,5.416-8.498,14.223c0,8.917,3.236,14.441,8.498,14.441C524.047-229.759,527.238-235.229,527.238-244.201z"/>
		<path d="M540.529-221.335c0.258-2.407,0.344-4.869,0.344-8.096v-29.594c0-2.954-0.086-5.416-0.344-7.986
			c2.027,0.109,3.58,0.164,6.34,0.164h9.447c8.541,0,13.242,5.197,13.242,14.715c0,9.737-4.916,15.536-13.285,15.536h-6.816v7.002
			c0,3.228,0.131,5.908,0.346,8.26H540.529z M555.885-245.896c3.02,0,4.789-2.133,4.789-5.908c0-3.775-1.684-5.744-4.789-5.744
			h-6.428v11.652H555.885z"/>
		<path d="M600.492-220.952c-1.854-0.273-3.406-0.383-7.117-0.383h-13.588c-3.277,0-4.486,0.055-6.34,0.164
			c0.258-2.188,0.344-4.212,0.344-7.987v-29.868c0-3.391-0.086-5.306-0.344-7.986c1.768,0.109,2.977,0.164,6.34,0.164h13.762
			c2.932,0,4.398-0.109,6.426-0.383v10.229c-1.984-0.274-3.537-0.383-6.426-0.383h-11.217v8.042h9.318
			c2.848,0,3.883-0.055,6.471-0.383v10.12c-2.027-0.274-3.494-0.383-6.471-0.383h-9.318v9.19h11.129
			c3.279,0,5.178-0.109,7.031-0.383V-220.952z"/>
		<path d="M626.68-221.335c-0.258-1.75-0.775-3.993-2.113-8.534c-1.379-4.759-1.898-6.017-2.977-7.221
			c-0.904-1.04-1.984-1.477-3.363-1.477h-4.4v8.971c0,3.72,0.086,5.744,0.346,8.26h-9.275c0.26-2.516,0.346-4.157,0.346-8.206
			v-29.43c0-3.391-0.086-5.416-0.346-8.041c1.898,0.109,3.494,0.164,6.428,0.164h11.215c6.988,0,11.043,4.595,11.043,12.472
			c0,3.884-0.861,6.947-2.545,8.971c-1.078,1.258-1.984,1.86-4.098,2.735c2.199,0.875,3.191,2.133,4.572,6.017
			c0.646,1.75,1.252,3.61,3.191,9.519c0.475,1.532,0.992,2.899,2.072,5.798H626.68z M620.555-247.92
			c2.545,0,4.098-1.969,4.098-5.087c0-3.063-1.379-4.65-4.055-4.65h-6.771v9.737H620.555z"/>
	</g>
</g>
<g>
	<g>
		<path fill="#FFFFFF" d="M280.733,81.916c-1.474,0-2.702-1.13-2.825-2.599c-0.093-1.116-0.497-3.317-1.03-5.608l-1.845-8.14
			l-1.811,8.167l-0.127,0.592c-0.694,3.236-0.819,3.819-0.908,4.971c-0.114,1.477-1.345,2.617-2.826,2.617H256.24
			c-1.381,0-2.561-0.995-2.794-2.355c-0.294-1.717-0.626-3.189-1.315-5.833l-8.749-33.681c-0.517-2.015-1.417-5.106-1.968-6.759
			c-0.288-0.864-0.144-1.814,0.389-2.554s1.389-1.177,2.3-1.177h14.816c1.534,0,2.79,1.22,2.833,2.753
			c0.051,1.779,0.201,3.06,0.669,5.712l1.131,6.662l1.683-7.147c0.741-3.175,0.9-4.017,1.167-5.612
			c0.228-1.367,1.41-2.368,2.796-2.368h11.645c1.393,0,2.579,1.012,2.799,2.387c0.203,1.269,0.457,2.549,1.154,5.337l1.726,7.25
			l1.152-6.561c0.54-3.021,0.621-4.091,0.668-5.665c0.046-1.531,1.301-2.749,2.833-2.749h14.817c0.911,0,1.767,0.438,2.3,1.177
			c0.532,0.739,0.678,1.689,0.39,2.554c-0.497,1.491-1.406,4.56-1.967,6.75l-8.75,33.635c-0.703,2.652-1.057,4.233-1.309,5.847
			c-0.216,1.38-1.404,2.397-2.801,2.397H280.733z"/>
		<path fill="#FFFFFF" d="M345.627,82.298c-0.102,0-0.204-0.005-0.306-0.017c-2.489-0.27-4.713-0.366-8.497-0.366h-18.697
			c-4.636,0-6.034,0-8.571,0.159c-0.059,0.004-0.118,0.005-0.177,0.005c-0.787,0-1.541-0.327-2.079-0.908
			c-0.579-0.625-0.846-1.476-0.729-2.318c0.314-2.253,0.41-4.142,0.41-8.083v-29.96c0-3.715-0.101-5.716-0.415-8.232
			c-0.104-0.838,0.17-1.679,0.748-2.294c0.538-0.571,1.285-0.892,2.064-0.892c0.06,0,0.12,0.002,0.181,0.006
			c2.48,0.158,3.758,0.158,8.513,0.158h18.041c3.241,0,5.479-0.097,8.551-0.371c0.084-0.008,0.168-0.011,0.252-0.011
			c0.705,0,1.389,0.263,1.913,0.743c0.587,0.537,0.922,1.296,0.922,2.091v12.083c0,0.803-0.341,1.568-0.938,2.105
			c-0.523,0.472-1.2,0.729-1.897,0.729c-0.098,0-0.195-0.005-0.294-0.015c-0.321-0.034-0.636-0.064-0.946-0.093
			c0.313,0.126,0.605,0.308,0.86,0.542c0.586,0.537,0.92,1.295,0.92,2.09v11.809c0,0.803-0.341,1.568-0.938,2.105
			c-0.522,0.472-1.2,0.729-1.897,0.729c-0.098,0-0.195-0.005-0.294-0.015c-2.638-0.275-4.812-0.368-8.618-0.368h-7.882v1.165h11.106
			c4.12,0,6.062-0.124,8.399-0.368c0.099-0.01,0.196-0.015,0.294-0.015c0.697,0,1.374,0.257,1.897,0.729
			c0.597,0.537,0.938,1.303,0.938,2.105v12.137c0,0.805-0.343,1.572-0.941,2.11C346.997,82.042,346.322,82.298,345.627,82.298z
			 M333.709,46.997c3.099,0,5.214-0.083,8.078-0.321c-1.609-0.096-3.329-0.133-5.674-0.133h-10.231v0.454H333.709z"/>
		<path fill="#FFFFFF" d="M350.766,82.08c-0.787,0-1.541-0.327-2.079-0.908c-0.578-0.625-0.846-1.476-0.729-2.318
			c0.311-2.226,0.41-4.189,0.41-8.083v-29.96c0-3.16-0.11-5.328-0.422-8.287c-0.087-0.831,0.196-1.657,0.774-2.26
			c0.536-0.559,1.275-0.872,2.045-0.872c0.06,0,0.12,0.002,0.181,0.006c2.479,0.158,3.757,0.158,8.513,0.158h15.197
			c10.915,0,17.433,5.454,17.433,14.589c0,4.419-1.375,7.864-4.089,10.244c0.415,0.291,0.825,0.618,1.237,0.989
			c2.993,2.516,4.547,6.208,4.547,10.91c0,9.932-6.753,15.628-18.526,15.628h-15.744c-4.637,0-6.036,0-8.571,0.159
			C350.884,82.078,350.824,82.08,350.766,82.08z M373.018,65.312c1.201,0,1.429-0.464,1.429-1.321c0-0.722-0.111-1.32-1.483-1.32
			h-5.804v2.641H373.018z M372.525,47.434c0.532,0,0.718-0.063,0.718-0.774c0-0.367-0.075-0.497-0.075-0.498
			c-0.027-0.015-0.265-0.112-0.752-0.112h-5.257v1.384H372.525z"/>
		<path fill="#FFFFFF" d="M246.366,147.685c-0.763,0-1.497-0.308-2.032-0.858c-0.587-0.604-0.875-1.438-0.787-2.276
			c0.259-2.429,0.334-4.262,0.334-8.174V106.47c0-4.056-0.081-5.841-0.374-8.303c-0.101-0.846,0.184-1.691,0.775-2.304
			c0.537-0.556,1.274-0.866,2.04-0.866c0.078,0,0.157,0.003,0.235,0.01c1.851,0.154,2.704,0.154,6.806,0.154h9.927
			c6.361,0,11.659,2.385,15.321,6.898c3.608,4.388,5.444,10.788,5.444,19.008c0,8.125-1.954,14.863-5.65,19.484
			c-3.595,4.494-8.931,6.969-15.027,6.969h-10.014c-3.773,0-4.787,0-6.776,0.156C246.513,147.682,246.439,147.685,246.366,147.685z
			 M262.372,130.315c1.278,0,5.168,0,5.168-9.412c0-8.537-3.242-8.537-5.387-8.537h-2.02v17.949H262.372z"/>
		<path fill="#FFFFFF" d="M314.111,147.903c-0.127,0-0.254-0.008-0.381-0.025c-1.965-0.267-3.646-0.357-6.66-0.357h-14.957
			c-3.773,0-4.788,0-6.777,0.156c-0.074,0.005-0.147,0.008-0.221,0.008c-0.765,0-1.501-0.31-2.037-0.863
			c-0.588-0.607-0.874-1.445-0.78-2.285c0.255-2.286,0.333-4.192,0.333-8.161v-29.96c0-3.738-0.082-5.756-0.336-8.302
			c-0.083-0.836,0.208-1.666,0.796-2.266c0.535-0.546,1.266-0.85,2.024-0.85c0.075,0,0.15,0.003,0.226,0.009
			c1.942,0.155,2.956,0.155,6.728,0.155h14.432c2.55,0,4.31-0.096,6.725-0.365c0.105-0.012,0.21-0.018,0.314-0.018
			c0.693,0,1.367,0.254,1.89,0.722c0.602,0.538,0.945,1.306,0.945,2.112v12.083c0,0.815-0.352,1.592-0.965,2.13
			c-0.521,0.457-1.186,0.705-1.87,0.705c-0.122,0-0.244-0.008-0.366-0.023c-0.104-0.014-0.207-0.027-0.31-0.04
			c0.265,0.119,0.512,0.278,0.732,0.476c0.6,0.538,0.942,1.305,0.942,2.111v11.809c0,0.815-0.352,1.592-0.965,2.13
			c-0.52,0.457-1.186,0.705-1.87,0.705c-0.122,0-0.244-0.008-0.366-0.023c-2.062-0.269-3.768-0.359-6.763-0.359h-5.736v1.165h8.316
			c3.239,0,4.761-0.121,6.589-0.359c0.122-0.016,0.245-0.023,0.366-0.023c0.685,0,1.351,0.248,1.87,0.705
			c0.613,0.538,0.965,1.314,0.965,2.13v12.137c0,0.818-0.354,1.597-0.97,2.135C315.456,147.657,314.793,147.903,314.111,147.903z
			 M304.576,112.602c2.461,0,4.133-0.083,6.415-0.322c-1.271-0.095-2.629-0.132-4.489-0.132h-7.618v0.454H304.576z"/>
		<path fill="#FFFFFF" d="M328.59,147.521c-1.41,0-2.606-1.037-2.806-2.434c-0.187-1.304-0.573-2.999-1.333-5.848l-9.223-33.716
			c-0.995-3.625-1.372-4.93-1.953-6.592c-0.303-0.867-0.167-1.827,0.364-2.576c0.531-0.749,1.394-1.194,2.312-1.194h12.244
			c1.447,0,2.662,1.09,2.818,2.53c0.227,2.099,0.525,3.965,0.911,5.704l3.573,16.516l3.571-16.5
			c0.407-1.929,0.725-3.909,0.914-5.711c0.152-1.442,1.369-2.538,2.819-2.538h12.244c0.917,0,1.777,0.443,2.31,1.191
			c0.531,0.747,0.669,1.705,0.369,2.572c-0.52,1.5-0.894,2.722-1.957,6.601l-9.226,33.731c-0.683,2.465-1.104,4.32-1.331,5.846
			c-0.206,1.39-1.398,2.419-2.804,2.419H328.59z"/>
		<path fill="#FFFFFF" d="M386.756,147.903c-0.127,0-0.254-0.008-0.381-0.025c-1.965-0.267-3.646-0.357-6.66-0.357H364.76
			c-3.773,0-4.788,0-6.777,0.156c-0.073,0.005-0.147,0.008-0.221,0.008c-0.765,0-1.501-0.309-2.037-0.863
			c-0.588-0.607-0.874-1.445-0.78-2.285c0.255-2.287,0.332-4.194,0.332-8.161v-29.96c0-3.737-0.081-5.755-0.335-8.303
			c-0.084-0.836,0.208-1.666,0.796-2.266c0.535-0.546,1.266-0.85,2.024-0.85c0.075,0,0.15,0.003,0.226,0.009
			c1.942,0.155,2.956,0.155,6.728,0.155h14.432c2.549,0,4.31-0.096,6.728-0.365c0.104-0.011,0.209-0.017,0.313-0.017
			c0.693,0,1.368,0.254,1.89,0.722c0.602,0.538,0.945,1.306,0.945,2.112v12.083c0,0.815-0.352,1.592-0.965,2.13
			c-0.52,0.457-1.186,0.705-1.87,0.705c-0.122,0-0.244-0.008-0.366-0.023c-0.104-0.014-0.207-0.027-0.31-0.04
			c0.265,0.119,0.512,0.278,0.732,0.476c0.6,0.538,0.942,1.305,0.942,2.11v11.809c0,0.815-0.352,1.592-0.965,2.13
			c-0.52,0.457-1.186,0.705-1.87,0.705c-0.122,0-0.244-0.008-0.366-0.023c-2.062-0.269-3.768-0.359-6.763-0.359h-5.737v1.165h8.317
			c3.237,0,4.759-0.121,6.587-0.359c0.122-0.016,0.244-0.023,0.366-0.023c0.685,0,1.351,0.248,1.87,0.705
			c0.613,0.538,0.965,1.314,0.965,2.13v12.137c0,0.818-0.354,1.597-0.97,2.135C388.101,147.657,387.438,147.903,386.756,147.903z
			 M377.223,112.602c2.459,0,4.131-0.083,6.414-0.322c-1.271-0.096-2.63-0.132-4.49-0.132h-7.616v0.454H377.223z"/>
		<path fill="#FFFFFF" d="M419.34,147.903c-0.127,0-0.254-0.008-0.381-0.025c-1.94-0.264-3.684-0.357-6.66-0.357h-14.432
			c-3.398,0-5.189,0.064-6.831,0.159c-0.056,0.003-0.11,0.005-0.165,0.005c-0.779,0-1.527-0.321-2.065-0.893
			c-0.574-0.612-0.849-1.447-0.749-2.28c0.219-1.818,0.329-4.556,0.329-8.136v-29.195c0-3.881-0.088-6.217-0.337-8.925
			c-0.073-0.793,0.191-1.581,0.729-2.17s1.297-0.924,2.094-0.924h11.326c0.806,0,1.573,0.343,2.11,0.942
			c0.538,0.6,0.795,1.4,0.707,2.201c-0.252,2.298-0.332,4.416-0.332,8.712v23.189h7.616c3.311,0,4.846-0.121,6.676-0.359
			c0.122-0.016,0.244-0.023,0.365-0.023c0.685,0,1.351,0.248,1.871,0.705c0.612,0.539,0.964,1.314,0.964,2.13v12.41
			c0,0.818-0.354,1.597-0.97,2.135C420.685,147.657,420.021,147.903,419.34,147.903z"/>
		<path fill="#FFFFFF" d="M439.504,148.668c-12.986,0-21.378-10.748-21.378-27.382c0-16.501,8.392-27.164,21.378-27.164
			c12.905,0,21.245,10.576,21.245,26.945C460.749,137.577,452.211,148.668,439.504,148.668z M439.459,111
			c-3.519,0-4.772,5.286-4.772,10.232c0,4.821,1.25,10.451,4.772,10.451c3.461,0,4.688-5.63,4.688-10.451
			C444.147,116.285,442.916,111,439.459,111z"/>
		<path fill="#FFFFFF" d="M461.811,147.521c-0.802,0-1.566-0.339-2.104-0.935c-0.537-0.595-0.798-1.39-0.717-2.187
			c0.235-2.306,0.335-4.836,0.335-8.46v-29.523c0-3.362-0.101-5.849-0.336-8.314c-0.079-0.821,0.204-1.635,0.773-2.23
			c0.536-0.56,1.276-0.874,2.048-0.874c0.049,0,0.098,0.001,0.147,0.004c1.898,0.099,3.707,0.16,6.851,0.16h9.838
			c10.729,0,17.136,6.884,17.136,18.416c0,11.752-6.692,19.346-17.048,19.346h-3.155v2.797c0,3.145,0.114,6.08,0.339,8.726
			c0.067,0.791-0.2,1.573-0.736,2.158c-0.537,0.584-1.294,0.917-2.088,0.917H461.811z M478.035,116.101c0.399,0,1.231,0,1.231-2.141
			c0-1.977-0.654-1.977-1.231-1.977h-2.456v4.117H478.035z"/>
		<path fill="#FFFFFF" d="M525.619,147.903c-0.127,0-0.254-0.008-0.381-0.025c-1.965-0.267-3.646-0.357-6.66-0.357h-14.955
			c-3.773,0-4.788,0-6.777,0.156c-0.073,0.005-0.147,0.008-0.221,0.008c-0.765,0-1.501-0.309-2.037-0.863
			c-0.588-0.607-0.874-1.445-0.78-2.285c0.255-2.287,0.332-4.194,0.332-8.161v-29.96c0-3.737-0.081-5.755-0.335-8.303
			c-0.084-0.836,0.208-1.666,0.796-2.266c0.535-0.546,1.266-0.85,2.024-0.85c0.075,0,0.15,0.003,0.226,0.009
			c1.942,0.155,2.956,0.155,6.728,0.155h14.432c2.549,0,4.31-0.096,6.728-0.365c0.104-0.011,0.209-0.017,0.313-0.017
			c0.693,0,1.368,0.254,1.89,0.722c0.602,0.538,0.945,1.306,0.945,2.112v12.083c0,0.815-0.352,1.592-0.965,2.13
			c-0.52,0.457-1.186,0.705-1.87,0.705c-0.122,0-0.244-0.008-0.366-0.023c-0.104-0.014-0.207-0.027-0.31-0.04
			c0.265,0.119,0.512,0.278,0.732,0.476c0.6,0.538,0.942,1.305,0.942,2.11v11.809c0,0.815-0.352,1.592-0.965,2.13
			c-0.52,0.457-1.186,0.705-1.87,0.705c-0.122,0-0.244-0.008-0.366-0.023c-2.062-0.269-3.768-0.359-6.763-0.359h-5.737v1.165h8.317
			c3.237,0,4.759-0.121,6.587-0.359c0.122-0.016,0.244-0.023,0.366-0.023c0.685,0,1.351,0.248,1.87,0.705
			c0.613,0.538,0.965,1.314,0.965,2.13v12.137c0,0.818-0.354,1.597-0.97,2.135C526.964,147.657,526.301,147.903,525.619,147.903z
			 M516.086,112.602c2.459,0,4.131-0.083,6.414-0.322c-1.271-0.096-2.63-0.132-4.49-0.132h-7.616v0.454H516.086z"/>
		<path fill="#FFFFFF" d="M551.686,147.521c-1.404,0-2.598-1.028-2.804-2.417c-0.324-2.183-0.722-3.839-1.933-8.055
			c-1.548-5.336-1.724-5.483-2.194-5.875c-0.083-0.067-0.271-0.219-0.985-0.219h-0.313v4.765c0,3.925,0.084,6.118,0.336,8.691
			c0.077,0.796-0.185,1.587-0.722,2.18s-1.3,0.93-2.1,0.93h-11.238c-0.802,0-1.566-0.339-2.104-0.935
			c-0.537-0.595-0.798-1.39-0.717-2.187c0.236-2.32,0.335-4.031,0.335-8.625V106.47c0-3.732-0.084-5.841-0.335-8.357
			c-0.083-0.825,0.2-1.644,0.773-2.243c0.536-0.559,1.276-0.873,2.047-0.873c0.054,0,0.107,0.001,0.161,0.004
			c1.992,0.113,3.998,0.16,6.923,0.16h11.939c4.695,0,8.545,1.71,11.135,4.945c2.182,2.73,3.288,6.434,3.288,11.011
			c0,4.821-1.214,8.741-3.511,11.336c-0.264,0.299-0.523,0.569-0.787,0.816c0.729,0.943,1.282,2.067,1.821,3.416
			c0.375,0.878,0.375,0.878,2.821,8.436c1.063,3.27,1.87,5.596,2.978,8.579c0.323,0.87,0.2,1.843-0.33,2.605
			c-0.53,0.762-1.399,1.216-2.327,1.216H551.686z M546.133,114.023c0.15,0,0.209-0.026,0.21-0.026
			c0.039-0.041,0.234-0.387,0.234-1.185c0-0.69-0.143-0.948-0.167-0.986c0.002,0.005-0.004,0.007-0.019,0.007
			c-0.037,0-0.127-0.014-0.259-0.014h-2.677v2.204H546.133z"/>
	</g>
	<g>
		<path d="M280.733,79.081c-0.109-1.312-0.547-3.663-1.093-6.014l-3.062-13.504c-0.546-2.351-1.093-5.577-1.531-8.365
			c-0.383,2.624-0.82,4.92-1.585,8.365l-3.007,13.559c-0.82,3.827-0.984,4.538-1.094,5.959H256.24
			c-0.328-1.914-0.711-3.554-1.367-6.069l-8.748-33.678c-0.547-2.132-1.476-5.303-2.023-6.943h14.816
			c0.055,1.914,0.219,3.335,0.711,6.124l2.515,14.816c0.273,1.64,0.546,3.39,0.984,6.834c0.383-2.625,0.82-4.757,1.312-6.889
			l3.554-15.089c0.766-3.28,0.93-4.155,1.203-5.795h11.645c0.219,1.367,0.492,2.734,1.203,5.577l3.554,14.926
			c0.711,2.952,0.984,4.428,1.367,7.271c0.547-4.483,0.711-5.959,0.984-7.381l2.515-14.324c0.547-3.062,0.655-4.265,0.71-6.069
			h14.817c-0.492,1.477-1.422,4.593-2.023,6.943l-8.748,33.624c-0.71,2.679-1.093,4.374-1.366,6.124H280.733z"/>
		<path d="M336.934,67.709c3.992,0,6.07-0.109,8.693-0.383v12.137c-2.516-0.273-4.756-0.382-8.803-0.382h-18.697
			c-4.701,0-6.123,0-8.748,0.164c0.328-2.351,0.438-4.319,0.438-8.475v-29.96c0-3.827-0.109-5.959-0.438-8.584
			c2.57,0.164,3.938,0.164,8.693,0.164h18.041c3.391,0,5.742-0.109,8.803-0.382v12.083c-2.623-0.273-4.865-0.383-8.803-0.383
			h-13.066v6.123h10.662c3.498,0,5.795-0.109,8.912-0.382v11.809c-2.625-0.273-4.867-0.383-8.912-0.383h-10.717v6.834H336.934z"/>
		<path d="M359.514,79.081c-4.703,0-6.125,0-8.748,0.164c0.328-2.351,0.438-4.429,0.438-8.475v-29.96
			c0-3.226-0.109-5.467-0.438-8.584c2.568,0.164,3.936,0.164,8.693,0.164h15.197c9.35,0,14.598,4.21,14.598,11.755
			c0,3.663-1.039,6.342-3.225,8.201c-1.203,1.093-2.352,1.64-4.922,2.46c3.062,0.601,4.594,1.203,6.234,2.679
			c2.404,2.023,3.607,4.975,3.607,8.802c0,8.255-5.521,12.793-15.691,12.793H359.514z M372.525,50.269
			c2.186,0,3.553-1.421,3.553-3.608s-1.312-3.444-3.662-3.444h-8.092v7.053H372.525z M373.018,68.146
			c2.623,0,4.264-1.585,4.264-4.155c0-2.569-1.641-4.155-4.318-4.155h-8.639v8.31H373.018z"/>
		<path d="M246.716,106.47c0-4.155-0.087-6.069-0.394-8.639c1.968,0.164,2.886,0.164,7.041,0.164h9.927
			c5.467,0,10.015,2.023,13.12,5.85c3.192,3.882,4.811,9.786,4.811,17.222s-1.75,13.613-5.029,17.714
			c-3.061,3.827-7.521,5.905-12.813,5.905h-10.014c-3.805,0-4.898,0-6.997,0.164c0.262-2.46,0.35-4.374,0.35-8.475V106.47z
			 M262.372,133.15c5.248,0,8.003-4.209,8.003-12.247c0-7.818-2.58-11.372-8.221-11.372h-4.854v23.618H262.372z"/>
		<path d="M307.156,133.314c3.193,0,4.855-0.109,6.955-0.383v12.137c-2.012-0.273-3.805-0.382-7.041-0.382h-14.957
			c-3.761,0-4.898,0-6.998,0.164c0.262-2.351,0.35-4.319,0.35-8.475v-29.96c0-3.827-0.088-5.959-0.35-8.584
			c2.055,0.164,3.149,0.164,6.954,0.164h14.432c2.711,0,4.592-0.109,7.039-0.382v12.083c-2.098-0.273-3.891-0.383-7.039-0.383
			h-10.453v6.123h8.527c2.799,0,4.637-0.109,7.129-0.382v11.809c-2.1-0.273-3.893-0.383-7.129-0.383h-8.571v6.834H307.156z"/>
		<path d="M328.59,144.686c-0.219-1.531-0.656-3.39-1.4-6.178l-9.227-33.733c-1.006-3.663-1.4-5.03-2.012-6.779h12.244
			c0.219,2.023,0.525,4.046,0.963,6.014l6.34,29.304l6.342-29.304c0.393-1.859,0.744-3.937,0.963-6.014h12.244
			c-0.568,1.64-0.963,2.953-2.012,6.779l-9.227,33.733c-0.787,2.843-1.182,4.702-1.4,6.178H328.59z"/>
		<path d="M379.803,133.314c3.191,0,4.854-0.109,6.953-0.383v12.137c-2.012-0.273-3.805-0.382-7.041-0.382H364.76
			c-3.762,0-4.898,0-6.998,0.164c0.262-2.351,0.35-4.319,0.35-8.475v-29.96c0-3.827-0.088-5.959-0.35-8.584
			c2.055,0.164,3.148,0.164,6.953,0.164h14.432c2.711,0,4.592-0.109,7.041-0.382v12.083c-2.1-0.273-3.893-0.383-7.041-0.383h-10.451
			v6.123h8.527c2.799,0,4.635-0.109,7.129-0.382v11.809c-2.1-0.273-3.893-0.383-7.129-0.383h-8.572v6.834H379.803z"/>
		<path d="M419.34,145.068c-2.012-0.273-3.85-0.382-7.041-0.382h-14.432c-3.236,0-5.117,0.055-6.996,0.164
			c0.217-1.804,0.35-4.483,0.35-8.475v-29.195c0-3.882-0.088-6.342-0.35-9.185h11.326c-0.264,2.406-0.35,4.647-0.35,9.021v26.024
			h10.451c3.279,0,4.941-0.109,7.041-0.382V145.068z"/>
		<path d="M420.961,121.286c0-14.816,7.217-24.329,18.543-24.329c11.195,0,18.41,9.458,18.41,24.11
			c0,14.816-7.434,24.767-18.41,24.767C428.178,145.834,420.961,136.266,420.961,121.286z M446.982,121.231
			c0-8.201-2.799-13.066-7.523-13.066c-4.766,0-7.607,4.866-7.607,13.066c0,8.255,2.885,13.286,7.607,13.286
			C444.139,134.517,446.982,129.487,446.982,121.231z"/>
		<path d="M461.811,144.686c0.262-2.57,0.35-5.249,0.35-8.748v-29.523c0-3.226-0.088-5.85-0.35-8.584
			c2.1,0.109,3.98,0.164,6.998,0.164h9.838c9.184,0,14.301,5.577,14.301,15.582c0,10.224-5.379,16.511-14.213,16.511h-5.99v5.631
			c0,3.444,0.131,6.396,0.35,8.966H461.811z M478.035,118.935c2.537,0,4.066-1.859,4.066-4.975c0-3.062-1.443-4.811-4.066-4.811
			h-5.291v9.786H478.035z"/>
		<path d="M518.666,133.314c3.191,0,4.854-0.109,6.953-0.383v12.137c-2.012-0.273-3.805-0.382-7.041-0.382h-14.955
			c-3.762,0-4.898,0-6.998,0.164c0.262-2.351,0.35-4.319,0.35-8.475v-29.96c0-3.827-0.088-5.959-0.35-8.584
			c2.055,0.164,3.148,0.164,6.953,0.164h14.432c2.711,0,4.592-0.109,7.041-0.382v12.083c-2.1-0.273-3.893-0.383-7.041-0.383h-10.451
			v6.123h8.527c2.799,0,4.635-0.109,7.129-0.382v11.809c-2.1-0.273-3.893-0.383-7.129-0.383h-8.572v6.834H518.666z"/>
		<path d="M548.756,97.996c3.762,0,6.865,1.312,8.922,3.882c1.748,2.187,2.666,5.303,2.666,9.24c0,4.101-0.961,7.381-2.799,9.458
			c-0.961,1.094-1.793,1.641-3.717,2.515c2.188,0.82,3.105,1.804,4.242,4.647c0.35,0.82,0.35,0.82,2.756,8.256
			c1.049,3.226,1.881,5.631,3.018,8.693h-12.158c-0.35-2.351-0.787-4.155-2.012-8.42c-1.617-5.576-1.924-6.287-3.105-7.271
			c-0.742-0.602-1.617-0.875-2.799-0.875h-3.148v7.6c0,3.991,0.088,6.287,0.35,8.966h-11.238c0.262-2.57,0.35-4.429,0.35-8.912
			V106.47c0-3.772-0.088-6.014-0.35-8.639c1.924,0.109,3.893,0.164,7.084,0.164H548.756z M546.133,116.858
			c2.055,0,3.279-1.531,3.279-4.046c0-2.46-1.182-3.827-3.279-3.827h-5.512v7.873H546.133z"/>
	</g>
</g>
<g>
	<path fill="#FFFFFF" d="M183.974,146.316c-3.572,0-8.885-1.986-8.885-7.459c0-3.233,2.117-5.758,5.663-6.755
		c2.679-0.767,3.178-1.168,3.268-1.305c0.232-0.355,0.231-2.065,0.229-3.574V65.227l-8.399,5.996
		c1.174,4.939,1.912,10.244,2.196,15.802c0.826,16.108-4.208,30.381-14.556,41.274c-10.561,11.116-25.603,17.491-41.27,17.491
		c-1.565,0-2.834-1.269-2.834-2.834v-8.652c0-1.435,1.073-2.644,2.498-2.814c6.637-0.794,7.971-5.39,7.971-12.548V77.066
		L113.93,65.697v77.258c0,1.565-1.269,2.834-2.834,2.834H69.55c-2.603,0-10.523,0-10.523-7.46c0-3.235,2.12-5.761,5.67-6.756
		c2.673-0.766,3.171-1.167,3.26-1.303c0.232-0.354,0.23-2.063,0.229-3.571v-78.61l0.005-0.625c0.013-1.165,0.041-3.588-0.733-3.811
		c-0.439-0.139-0.798-0.246-1.15-0.352c-2.899-0.87-7.281-2.184-7.281-7.594c0-3.266,1.769-7.16,10.196-7.16h41.872
		c1.565,0,2.834,1.269,2.834,2.834v10.679l15.882,11.34c-0.266-6.012-1.932-9.835-7.93-10.553c-1.425-0.17-2.498-1.379-2.498-2.814
		v-8.652c0-1.554,1.25-2.818,2.804-2.834l0.724-0.004c19.938,0,35.996,8.602,45.567,24.305l15.769-11.257v-9.681
		c0-1.565,1.269-2.834,2.834-2.834h14.712c0.435-0.255,0.93-0.391,1.437-0.391h23.344c0.518,0,1.011,0.141,1.437,0.391h2.25
		c3.571,0,8.885,1.986,8.885,7.458c0,3.234-2.119,5.76-5.669,6.756c-2.674,0.767-3.172,1.167-3.262,1.304
		c-0.232,0.354-0.23,2.065-0.229,3.575v79.054c-0.001,1.509-0.003,3.219,0.229,3.574c0.089,0.137,0.587,0.538,3.277,1.308
		c3.534,0.991,5.653,3.516,5.653,6.751c0,5.473-5.313,7.459-8.885,7.459H183.974z"/>
	<path d="M232.713,134.831c-5.722-1.64-5.56-2.537-5.56-8.054v-78.16c0-5.52-0.163-6.415,5.56-8.056
		c2.129-0.597,3.6-1.939,3.6-4.026c0-4.326-5.397-4.624-6.05-4.624h-4.234l0.548-0.391h-23.344l-0.547,0.391h-15.603v11.14
		l-19.509,13.928c-9.381-17.587-26.291-25.801-45.355-25.596v8.652c9.976,1.193,10.468,9.695,10.468,15.362v3.541l-21.592-15.417
		V31.383H69.224c-3.271,0-7.362,0.448-7.362,4.325c0,3.73,3.108,4.177,6.38,5.222c3.108,0.894,2.779,4.921,2.779,7.16v78.159
		c0,5.519,0.164,6.415-5.559,8.055c-2.127,0.596-3.601,1.94-3.601,4.026c0,4.327,4.091,4.625,7.688,4.625h41.545V60.189
		l21.592,15.417v43.333c0,5.667-0.492,14.169-10.468,15.363v8.652c27.149,0,54.792-20.734,52.995-55.787
		c-0.32-6.261-1.21-11.96-2.585-17.13l14.455-10.318v67.056c0,5.518,0.162,6.414-5.565,8.054c-2.124,0.597-3.595,1.939-3.595,4.026
		c0,4.327,5.396,4.625,6.051,4.625h46.289c0.653,0,6.05-0.298,6.05-4.625C236.313,136.77,234.842,135.427,232.713,134.831z"/>
</g>
<path d="M-141.847-329.984c-3.297-1.036-3.203-1.603-3.203-5.089v-49.381c0-3.487-0.094-4.052,3.203-5.089
	c1.227-0.377,2.074-1.225,2.074-2.544c0-2.733-3.109-2.921-3.486-2.921h-2.439l0.315-0.247h-13.45l-0.314,0.247h-8.99v7.039
	l-22.079,17.288l-21.701-16.99v-7.669h-24.125c-1.885,0-4.241,0.283-4.241,2.733c0,2.356,1.791,2.639,3.676,3.298
	c1.791,0.565,1.602,3.11,1.602,4.523v49.381c0,3.486,0.095,4.053-3.203,5.089c-1.226,0.377-2.074,1.226-2.074,2.544
	c0,2.733,2.356,2.922,4.43,2.922h23.937v-52.291l21.701,16.991l22.079-17.288v42.366c0,3.486,0.094,4.053-3.205,5.089
	c-1.225,0.377-2.072,1.226-2.072,2.544c0,2.733,3.109,2.922,3.486,2.922h26.67c0.377,0,3.486-0.188,3.486-2.922
	C-139.772-328.758-140.62-329.607-141.847-329.984z"/>
<path d="M-205.509-395.341c16.02-0.188,29.402,10.932,30.533,35.245c1.036,22.146-14.891,35.245-30.533,35.245v-5.466
	c5.748-0.754,6.031-6.126,6.031-9.706v-40.146c0-3.581-0.283-8.953-6.031-9.707V-395.341z"/>
<g>
	<g>
		<path fill="#6ABD79" d="M627.179-224.05c0,0,1.055-19.845,28.67-9.268C655.849-233.318,637.729-233.583,627.179-224.05z"/>
		<path fill="#6ABD79" d="M627.956-223.297c0,0,17.228,0.71,20.685,11.617c0,0,2.394-8.071-4.256-12.653
			c-6.65-4.581-15.962-0.217-15.962-0.217L627.956-223.297z"/>
		<path fill="#FFFFFF" d="M637.721-163.051c0,0.663-4.598,1.202-10.27,1.202c-5.67,0-10.268-0.539-10.268-1.202l-0.541-0.946
			c0-0.699,4.84-1.267,10.809-1.267c5.971,0,10.809,0.568,10.809,1.267L637.721-163.051z"/>
		<ellipse fill="#BFBFBF" cx="627.451" cy="-163.997" rx="10.809" ry="1.267"/>
		<path fill="#FFFFFF" stroke="#BFBFBF" stroke-width="0.356" d="M637.058-164.05c0,0.6-4.149,1.085-9.269,1.085
			c-5.117,0-9.266-0.486-9.266-1.085l-1.542-16.495c0-0.698,4.84-1.266,10.808-1.266c5.972,0,10.81,0.568,10.81,1.266
			L637.058-164.05z"/>
		<g>
			<path fill="#BFBFBF" stroke="#BFBFBF" stroke-width="0.356" d="M637.245-179.931c0.861-0.182,1.354-0.391,1.354-0.614
				c0-0.698-4.838-1.266-10.81-1.266c-5.968,0-10.808,0.568-10.808,1.266c0,0.223,0.493,0.432,1.354,0.614
				c1.843-0.389,5.386-0.653,9.453-0.653C631.858-180.583,635.4-180.32,637.245-179.931z"/>
			<path fill="#CABB89" d="M637.245-179.931c-1.845-0.389-5.387-0.653-9.456-0.653c-4.067,0-7.61,0.264-9.453,0.653
				c1.843,0.389,5.386,0.653,9.453,0.653C631.858-179.278,635.4-179.542,637.245-179.931z"/>
		</g>
		<path fill="#A9865F" d="M628.223-222.424c0,0-0.823,34.362,0.972,42.542c0,0-1.33,0.873-3.549,0c0,0,0.423-30.433,1.023-42.87
			L628.223-222.424z"/>
		<path fill="#B4D898" d="M627.624-227.169c0,0,0.799-10.69-10.908-16.581c-11.706-5.89-24.209-2.398-27.668,0
			c0,0,30.86,3.274,37.512,18.545c0,0-8.779-8.509-22.348-5.236c-13.567,3.272-13.302,12.872-13.302,12.872
			s17.242-13.636,35.759-5.182c0,0,24.102-9.435,36.338,6.273c0,0-1.328-11.562-10.64-13.962c-9.313-2.4-15.433,0.218-22.35,3.49
			c0,0,8.249-21.38,39.374-17.454c0,0-14.084-8.895-30.329-1.527C626.56-240.258,627.624-227.169,627.624-227.169z"/>
		<path fill="#6ABD79" d="M627.824-224.441c0,0-18.891-12.436-27.403,11.562C600.421-212.879,612.127-224.223,627.824-224.441z"/>
		<path fill="#9ACC77" d="M630.816-225.314c0,0-2.661-1.091-5.854-0.438c0,0-9.577,2.619-9.311,21.163
			C615.652-204.589,628.155-215.061,630.816-225.314z"/>
		<path fill="#FFFFFF" stroke="#BFBFBF" stroke-width="0.356" d="M627.548-162.896c-5.493,0-10.025-0.479-10.716-1.101l0.445,0.779
			c0,0.666,4.598,1.203,10.271,1.203c5.669,0,10.267-0.537,10.267-1.203l0.445-0.779
			C637.569-163.375,633.038-162.896,627.548-162.896z"/>
	</g>
	<path fill="#C2CCD2" d="M586.28-204.893v31.309c0,0.277,0.684,0.501,1.527,0.501c0.845,0,1.529-0.225,1.529-0.501v-31.309H586.28z"
		/>
	<path fill="#C2CCD2" d="M538.109-205.248v31.308c0,0.276,0.685,0.502,1.529,0.502c0.843,0,1.527-0.226,1.527-0.502v-31.308H538.109
		z"/>
	<g>
		<path fill="#C2CCD2" d="M597.089-197.627v31.307c0,0.278,0.684,0.502,1.527,0.502c0.845,0,1.528-0.224,1.528-0.502v-31.307
			H597.089z"/>
		<path fill="#C2CCD2" d="M525.362-197.627v31.307c0,0.278,0.685,0.502,1.529,0.502c0.844,0,1.528-0.224,1.528-0.502v-31.307
			H525.362z"/>
		<polygon fill="#FDE7C6" stroke="#FDE7C6" stroke-width="0.356" points="591.506,-207.551 604.255,-198.69 521.489,-198.69 
			537.264,-207.551 		"/>
		<rect x="521.489" y="-198.69" fill="#FACD89" stroke="#FACD89" stroke-width="0.356" width="82.766" height="1.24"/>
		<g>
			<polygon fill="#D4C9AA" points="581.942,-228.151 581.942,-205.424 580.322,-207.816 580.322,-228.151 			"/>
			<rect x="581.942" y="-228.151" fill="#EAE4D1" width="9.401" height="22.727"/>
			<rect x="581.942" y="-222.901" fill="#BFB69A" width="9.401" height="0.398"/>
			<rect x="583.159" y="-220.708" fill="#EAE4D1" stroke="#BFB69A" stroke-width="0.356" width="6.968" height="0.798"/>
			<rect x="583.159" y="-218.183" fill="#EAE4D1" stroke="#BFB69A" stroke-width="0.356" width="6.968" height="0.798"/>
			<path fill="none" stroke="#BFB69A" stroke-width="0.356" d="M586.137-204.057c-0.04-0.166,3.484-0.332,2.958-0.929
				c-0.723-0.822-4.619-0.034-6.604-0.267c-1.326-0.156-3.444-0.233-3.444-0.233"/>
			<path fill="#D4C9AA" d="M588.94-200.334c1.652-0.06,2.239-0.906,1.901-1.979c-0.419-1.33-2.682-1.33-4.333-1.33
				s-2.188,0.179-1.678,1.704C585.312-200.5,587.29-200.275,588.94-200.334z"/>
			<path fill="#EAE4D1" d="M588.891-200.992c1.652-0.06,2.34-1.062,1.678-1.774c-1.276-1.371-2.456-1.535-4.108-1.535
				c-1.234,0-2,0.85-1.678,1.706C585.316-201.171,587.24-200.932,588.891-200.992z"/>
			<ellipse fill="#EAE4D1" cx="562.764" cy="-206.482" rx="10.85" ry="1.433"/>
			<rect x="557.253" y="-212.468" fill="#D4C9AA" width="11.021" height="5.948"/>
			<polygon fill="#EAE4D1" points="578.971,-206.122 583.118,-202.312 541.735,-202.312 547.098,-206.122 			"/>
			<rect x="541.735" y="-202.312" fill="#D4C9AA" width="41.383" height="1.146"/>
			<polygon fill="#D4C9AA" points="570.489,-205.401 570.436,-205.867 548.637,-205.867 548.24,-205.437 			"/>
			<polygon fill="#D4C9AA" points="570.813,-203.115 570.57,-205.013 547.8,-205.013 545.658,-203.115 			"/>
			<polygon fill="#D4C9AA" points="580.592,-203.142 578.08,-205.889 571.219,-205.889 571.947,-203.142 			"/>
			<polyline fill="#BFB69A" points="580.592,-203.142 580.16,-203.474 572.245,-203.474 571.947,-203.142 			"/>
			<polyline fill="#BFB69A" points="570.813,-203.142 570.381,-203.474 545.955,-203.474 545.658,-203.142 			"/>
			<rect x="557.253" y="-212.136" fill="#BFB69A" width="11.075" height="2.925"/>
			<rect x="544.828" y="-232.936" fill="#EAE4D1" width="35.872" height="22.151"/>
			<rect x="548.718" y="-230.189" fill="#8CAAB4" stroke="#FFFFFF" stroke-width="0.356" width="28.092" height="16.658"/>
			<rect x="581.942" y="-228.151" fill="#C8D4D9" width="9.401" height="1.861"/>
		</g>
		<polygon fill="#88ABDA" points="540.694,-200.972 540.694,-201.304 530.322,-200.64 530.322,-200.307 		"/>
		<polygon fill="#FFFCD1" points="540.694,-201.304 540.451,-204.959 530.97,-204.36 530.322,-200.64 		"/>
	</g>
	<g>
		<g>
			<ellipse fill="#404040" cx="580.376" cy="-163.958" rx="2.751" ry="2.256"/>
			<ellipse fill="#808080" cx="579.457" cy="-163.647" rx="2.751" ry="2.255"/>
			<path fill="#404040" d="M604.511-164.495c-1.132,0.477-2.24-0.083-2.476-1.255c-0.235-1.17,0.491-2.506,1.623-2.984
				s2.238,0.084,2.475,1.255C606.367-166.308,605.642-164.972,604.511-164.495z"/>
			<path fill="#404040" d="M583.927-156.477c-1.132,0.478-2.24-0.083-2.475-1.254c-0.236-1.17,0.49-2.507,1.622-2.985
				c1.132-0.477,2.239,0.085,2.476,1.255C585.784-158.289,585.058-156.954,583.927-156.477z"/>
			<ellipse fill="#404040" cx="611.766" cy="-160.9" rx="2.75" ry="2.256"/>
			<path fill="#BFBFBF" d="M593.145-180.969v14.649c0,0.278,0.684,0.502,1.527,0.502c0.845,0,1.528-0.224,1.528-0.502v-14.649
				H593.145z"/>
			<path fill="#BFBFBF" d="M606.465-168.673c0.464-0.166,0.843-0.64,0.843-1.055v-1.25c0-0.415-0.379-0.618-0.843-0.453
				l-24.733,8.834c-0.463,0.166-0.842,0.641-0.842,1.055v1.25c0,0.415,0.379,0.618,0.842,0.453L606.465-168.673z"/>
			<ellipse fill="#808080" cx="610.847" cy="-160.59" rx="2.751" ry="2.256"/>
			<path fill="#808080" d="M585.603-156.458c-1.131,0.478-2.239-0.084-2.475-1.254c-0.234-1.171,0.492-2.507,1.623-2.984
				s2.239,0.084,2.475,1.255C587.461-158.271,586.734-156.936,585.603-156.458z"/>
			<path fill="#808080" d="M606.187-164.477c-1.131,0.478-2.239-0.084-2.475-1.255c-0.235-1.169,0.491-2.505,1.623-2.984
				c1.131-0.477,2.239,0.084,2.475,1.255C608.044-166.291,607.318-164.955,606.187-164.477z"/>
			<path fill="#BFBFBF" d="M612.797-162.751c0.502,0.049,0.913-0.25,0.913-0.665v-1.25c0-0.415-0.411-0.795-0.913-0.844
				l-34.479-3.409c-0.503-0.05-0.912,0.25-0.912,0.665v1.25c0,0.415,0.409,0.794,0.912,0.844L612.797-162.751z"/>
		</g>
		<path fill="#CBCB90" d="M571.925-157.154c3.08,0.042,10.048-0.443,9.237-1.507c-0.811-1.062-5.564-1.417-8.428-1.151
			C569.871-159.546,568.737-157.199,571.925-157.154z"/>
		<path fill="#FBD9BF" d="M572.951-158.35c5.023,0.665,7.887,0.62,8.395-4.271l-10.502-2.641L572.951-158.35z"/>
		<path fill="#CBCB90" d="M576.084-157.552c1.045-1.059,2.719-6.836-5.74-7.588c-10.669-0.95-13.641,5.66-12.188,6.222
			C562.254-157.332,575.165-156.622,576.084-157.552z"/>
		<path fill="#3786C7" d="M613.203-194.7c1.504,0.15,2.735-0.745,2.735-1.987v-9.479c0-1.244-1.231-2.384-2.735-2.535l-17.665-1.767
			c-1.505-0.15-2.736,0.744-2.736,1.987v9.479c0,1.243,1.231,2.384,2.736,2.535L613.203-194.7z"/>
		<path fill="#3786C7" d="M602.04-186.418c5.18,0.956,9.563,1.329,9.076,3.456c-0.485,2.126-5.672,4.386-12.642,5.848
			c-6.969,1.462-12.805,1.329-20.26-0.133c-7.455-1.461-13.775-6.911-0.162-8.905C591.667-188.146,595.557-187.615,602.04-186.418z"
			/>
		<path fill="#808080" d="M577.377-196.275c0,0,7.376-1.795,11.817-4.232c0,0,1.135-0.797,3.079-0.31
			c1.946,0.487,1.459,2.126-2.431,3.588c-3.89,1.461-10.845,3.514-12.467,4.01c-2.391,0.731-4.929,0.295-5.551-0.1
			C570.408-194.215,573.731-195.345,577.377-196.275z"/>
		<g>
			<path fill="#FBD9BF" d="M596.526-212.72c0,0,0.273,0.549,2.498,0.57c2.227,0.021,2.508-0.583,2.508-0.583l-0.141-0.799
				c-1.442-1-3.998-1.09-4.65-1.096L596.526-212.72z"/>
			
				<linearGradient id="SVGID_5_" gradientUnits="userSpaceOnUse" x1="7667.9551" y1="5595.8262" x2="7680.7832" y2="5595.8262" gradientTransform="matrix(0.3612 -0.0053 0.0053 0.3612 -2202.551 -2195.6509)">
				<stop  offset="0.01" style="stop-color:#FBD9BF"/>
				<stop  offset="0.99" style="stop-color:#DA9E83"/>
			</linearGradient>
			<path fill="url(#SVGID_5_)" d="M596.812-216.693l-0.071,2.065c0.652,0.005,3.208,0.095,4.65,1.096l-0.218-3.142L596.812-216.693z
				"/>
		</g>
		<path fill="#759875" d="M590.76-188.288c-2.853-1.702-9.854-6.379-14.522-3.828c-4.667,2.552-7.52,19.138-7.52,19.138l2.583,5.166
			l-0.649,2.348c0,0,4.052,3.811,11.551,3.332l2.853-15.098c0,0,15.818-3.12,19.417-5.467c3.044-1.986,2.53-3.483,2.107-4.386
			C605.768-188.811,590.76-188.288,590.76-188.288z"/>
		<path fill="#CBCB90" d="M573.19-173.659c8.224,1.791,5.576,6.778,4.539,7.841c-1.039,1.063-4.539,0.531-11.184-1.063
			c0,0-3.489-0.696-6.548-2.135C558.604-169.672,562.818-175.919,573.19-173.659z"/>
		<g>
			<path fill="#CCE198" d="M606.579-187.083l0.259-2.056c0,0,7.778-1.489,8.038-6.805s-1.813-11.873-7.261-14.886
				c-1.614-0.893-3.141-1.403-4.257-1.689c-1.121,1.361-3.455,2.043-6.505,2.043c-2.285,0-2.905-1.2-3.056-2.063
				c-5.751,0.781-12.23,3.608-14.188,5.75c-2.334,2.553-11.67,3.19-11.67,3.19s0.316,6.302,3.955,7.346
				c6.482,1.86,11.053-1.861,14.425-3.987l-0.324,9.259c0,0,4.052,2.216,4.646,2.748
				C590.642-188.234,603.823-188.722,606.579-187.083z"/>
			<path fill="#FBD9BF" d="M596.854-210.475c3.05,0,5.384-0.682,6.505-2.043c-1.1-0.283-1.805-0.348-1.805-0.348l-4.57,0.124
				c-1.011-0.02-2.085,0.055-3.186,0.204C593.948-211.675,594.568-210.475,596.854-210.475z"/>
		</g>
		<path fill="#FFFFFF" d="M592.014-212.218c0.105,0.128,0.607,3.036,4.426,3.206c4.041,0.18,6.548-0.668,8.842-2.891l-0.344-0.116
			c-2.22,2.149-4.555,2.916-8.479,2.741c-3.546-0.158-4.005-2.764-4.124-2.975L592.014-212.218z"/>
		<path fill="#FBD9BF" d="M573.385-199.134c-3.389,0.313-5.187-2.339-5.445-4.465c0,0-0.216-3.078,1.037-4.678
			c1.459-1.865,7.261-1.063,7.261-1.063c0.965,0.261,3.112,0.925,2.829,1.956c-0.284,1.03-2.594,0.93-2.594,0.93
			s1.257,1.728-1.013,2.425c0,0,1.742,1.927-1.135,2.292C574.325-201.736,576.861-199.455,573.385-199.134z"/>
		<path fill="#89C997" d="M588.831-204.029c0,0,6.808,0.864,13.857,0.266l0.081,6.513c0,0-7.213,0.863-14.263-0.2L588.831-204.029z"
			/>
		<path fill="#808080" d="M602.526-188.146c0,0,8.86-1.241,11.453-5.095c0,0,1.135-0.798,3.081-0.31
			c1.943,0.487,1.458,2.126-2.432,3.588c-3.891,1.462-10.845,3.513-12.467,4.009c-2.392,0.731-4.903,0.267-5.551-0.1
			C595.962-186.418,600.379-187.98,602.526-188.146z"/>
		<path fill="#FBD9BF" d="M600.784-192.001c-0.905-0.848-1.337-1.329-3.606-1.861c0,0-5.511,0.532-7.292,1.729
			c-1.784,1.196-2.919,5.715-1.784,6.778c0,0,0.162,2.26,2.27,1.329c0,0,0.323,1.728,2.593,0.665c0,0,0.953,1.351,2.472-0.299
			c1.62-1.761,0.933-2.093,2.391-2.758c1.459-0.664,3.85-0.664,4.539-1.86C602.365-188.279,603.053-189.874,600.784-192.001z"/>
		<g>
			
				<linearGradient id="SVGID_6_" gradientUnits="userSpaceOnUse" x1="4598.4189" y1="2799.2686" x2="4643.6377" y2="2844.4871" gradientTransform="matrix(0.5 0 0 0.5 -1712.2812 -1641.4434)">
				<stop  offset="0" style="stop-color:#B58E75"/>
				<stop  offset="0.42" style="stop-color:#784A30"/>
				<stop  offset="1" style="stop-color:#4F2D15"/>
			</linearGradient>
			<path fill="url(#SVGID_6_)" d="M592.642-245.133c0,0-4.613-0.95-8.179,4.632c-3.566,5.582-3.489,18.759,4.938,24.519l8.536-8.683
				l9.725,8.063c0,0,5.93-8.493,5.174-18.328s-9.28-12.063-13.062-12.152C595.332-247.187,594.04-246.352,592.642-245.133z"/>
			<path fill="#FBD9BF" d="M611.074-231.034c-0.307-8.2-1.792-12.194-13.407-12.194c-10.265,0-13.265,2.841-13.591,11.926
				c-1.779,0.075-3.195,1.354-3.195,2.926c0,1.617,1.5,2.93,3.354,2.934c1.499,5.634,6.812,10.272,13.433,10.272
				c6.518,0,11.595-4.51,13.131-10.008c0.017,0.001,0.034,0.002,0.052,0.002c1.855,0,3.361-1.314,3.361-2.935
				C614.211-229.665,612.824-230.934,611.074-231.034z"/>
			<path fill="none" stroke="#69463A" stroke-width="0.89" stroke-linecap="round" stroke-linejoin="round" d="M595.266-232.405
				c-0.438-1.259-1.852-2.181-3.528-2.181c-1.411,0-2.637,0.653-3.25,1.612"/>
			<path fill="none" stroke="#69463A" stroke-width="0.89" stroke-linecap="round" stroke-linejoin="round" d="M600.376-232.405
				c0.438-1.259,1.85-2.181,3.525-2.181c1.412,0,2.637,0.653,3.25,1.612"/>
			<path fill="#DA9D7A" stroke="#DA9D7A" stroke-width="0.356" stroke-linecap="round" stroke-linejoin="round" d="M596.99-224.083
				l0.932,0.166l1.176-0.166c0,0-0.162,0.831-1.154,0.831C597.193-223.252,596.99-224.083,596.99-224.083z"/>
			<path fill="none" stroke="#ED6D34" stroke-width="0.712" stroke-linecap="round" stroke-linejoin="round" d="M592.251-221.771
				c0.715,1.411,2.996,2.445,5.705,2.445s4.991-1.034,5.705-2.445"/>
			
				<linearGradient id="SVGID_7_" gradientUnits="userSpaceOnUse" x1="4600.459" y1="2797.043" x2="4647.0991" y2="2843.6833" gradientTransform="matrix(0.5 0 0 0.5 -1712.2812 -1641.4434)">
				<stop  offset="0" style="stop-color:#B58E75"/>
				<stop  offset="0.42" style="stop-color:#784A30"/>
				<stop  offset="1" style="stop-color:#4F2D15"/>
			</linearGradient>
			<path fill="url(#SVGID_7_)" d="M591.589-242.298c0,0-0.729,4.917,4.943,7.443c0,0,0-4.585,0.811-6.579
				c0,0,1.701,6.047,6.483,7.11c0,0-0.974-4.12-0.567-5.848c0,0,1.458,4.851,6.564,7.576c0,0,0.729,3.522,0.242,6.446
				c0,0,1.622-3.39,1.54-6.646c-0.08-3.256,0.324-11.762-13.695-12.293c-14.021-0.532-15.234,9.503-14.992,12.427
				c0.243,2.923,1.216,5.05,2.106,6.18C585.024-226.481,582.351-238.709,591.589-242.298z"/>
			<g>
				<ellipse fill="#754236" cx="602.829" cy="-229.132" rx="1.443" ry="1.692"/>
				<ellipse fill="#FFFFFF" cx="602.314" cy="-229.132" rx="0.517" ry="0.677"/>
			</g>
			<g>
				<ellipse fill="#754236" cx="592.87" cy="-229.108" rx="1.444" ry="1.692"/>
				<ellipse fill="#FFFFFF" cx="593.386" cy="-229.108" rx="0.517" ry="0.676"/>
			</g>
		</g>
		<g>
			<path fill="#A2C3E7" stroke="#A2C3E7" stroke-width="0.712" d="M581.274-198.994c0,0.282-1.949,0.511-4.355,0.511
				c-2.407,0-4.355-0.229-4.355-0.511L571.838-208c0-0.328,2.274-0.595,5.081-0.595c2.806,0,5.081,0.267,5.081,0.595
				L581.274-198.994z"/>
			<ellipse fill="#FFFFFF" cx="576.919" cy="-208" rx="5.081" ry="0.595"/>
		</g>
		<g>
			<g>
				<path fill="#FFF100" d="M595.18-200.14c0,0.93-0.387,1.595-1.158,1.994c-0.513,0.268-1.152,0.401-1.919,0.401
					c-0.507,0-0.854-0.046-1.039-0.14c-0.147,0.062-0.313,0.093-0.499,0.093c-0.214,0-0.392-0.047-0.532-0.14
					c-0.197-0.128-0.296-0.326-0.296-0.593c0-0.294,0.014-0.764,0.042-1.407c0.022-0.643,0.034-0.963,0.034-0.959
					c0-0.116-0.043-0.217-0.127-0.302c0.214,0,0.366-0.031,0.456-0.093c-0.378-0.082-0.566-0.242-0.566-0.483
					c0-0.093,0.034-0.205,0.102-0.337c0.062-0.132,0.093-0.24,0.093-0.326c0.079,0.042,0.184,0.064,0.313,0.064
					c0.039,0,0.386-0.048,1.039-0.146c0.648-0.097,1.116-0.146,1.403-0.146C594.295-202.658,595.18-201.819,595.18-200.14z
					 M593.641-200.257c0-0.849-0.445-1.273-1.335-1.273c-0.299,0-0.583,0.027-0.854,0.081c-0.316,0.066-0.482,0.099-0.499,0.099
					c0.146,0.05,0.251,0.122,0.312,0.215c0.073,0.117,0.11,0.297,0.11,0.541c0,0.353,0.005,0.965,0.017,1.837
					c0.085,0.008,0.184,0.012,0.296,0.012c0.671,0,1.172-0.122,1.505-0.367C593.491-199.332,593.641-199.714,593.641-200.257z"/>
				<path fill="#FFF100" d="M601.375-198.402c0,0.19-0.071,0.347-0.212,0.471c-0.135,0.124-0.332,0.186-0.592,0.186
					c-0.529,0-0.794-0.24-0.794-0.721c0-0.073,0.011-0.467,0.033-1.18c-0.101,0.194-0.273,0.544-0.516,1.052
					c-0.18,0.419-0.399,0.628-0.659,0.628c-0.293,0-0.484-0.122-0.574-0.366c-0.315-0.837-0.521-1.273-0.617-1.308l-0.009,1.238
					c0,0.438-0.262,0.657-0.786,0.657c-0.242,0-0.431-0.056-0.566-0.168c-0.135-0.109-0.202-0.252-0.202-0.431
					c0,0.078,0.014-0.275,0.042-1.058c0.028-0.779,0.042-1.589,0.042-2.431c0-0.314-0.064-0.5-0.194-0.558l0.397-0.14
					c0.265-0.089,0.477-0.134,0.634-0.134c0.259,0,0.465,0.153,0.617,0.459c0.71,1.427,1.112,2.14,1.209,2.14
					c0.112,0,0.389-0.496,0.828-1.488c0.169-0.38,0.254-0.614,0.254-0.704c0-0.074-0.021-0.128-0.06-0.163
					c0.057,0,0.208-0.041,0.456-0.122c0.242-0.078,0.445-0.117,0.608-0.117c0.203,0,0.361,0.055,0.474,0.163
					c0.107,0.104,0.161,0.246,0.161,0.424c0,0.078,0.005,0.667,0.017,1.768C601.372-199.202,601.375-198.568,601.375-198.402z"/>
			</g>
		</g>
	</g>
</g>
</svg>
